HIERARCHY
ROOT hip
{
  OFFSET 0 0 0
  CHANNELS 6 Xposition Yposition Zposition Zrotation Yrotation Xrotation
  JOINT abdomen
  {
    OFFSET 0 20.6881 -0.73152
    CHANNELS 3 Zrotation Xrotation Yrotation
    JOINT chest
    {
      OFFSET 0 11.7043 -0.48768
      CHANNELS 3 Zrotation Xrotation Yrotation
      JOINT neck
      {
        OFFSET 0 22.1894 -2.19456
        CHANNELS 3 Zrotation Xrotation Yrotation
        JOINT head
        {
          OFFSET -0.24384 7.07133 1.2192
          CHANNELS 3 Zrotation Xrotation Yrotation
          JOINT leftEye
          {
            OFFSET 4.14528 8.04674 8.04672
            CHANNELS 3 Zrotation Xrotation Yrotation
            End Site
            {
              OFFSET 1 0 0
            }
          }
          JOINT rightEye
          {
            OFFSET -3.6576 8.04674 8.04672
            CHANNELS 3 Zrotation Xrotation Yrotation
            End Site
            {
              OFFSET 1 0 0
            }
          }
        }
      }
      JOINT rCollar
      {
        OFFSET -2.68224 19.2634 -4.8768
        CHANNELS 3 Zrotation Xrotation Yrotation
        JOINT rShldr
        {
          OFFSET -8.77824 -1.95073 1.46304
          CHANNELS 3 Zrotation Xrotation Yrotation
          JOINT rForeArm
          {
            OFFSET -28.1742 -1.7115 0.48768
            CHANNELS 3 Zrotation Xrotation Yrotation
            JOINT rHand
            {
              OFFSET -22.5879 0.773209 7.07136
              CHANNELS 3 Zrotation Xrotation Yrotation
              JOINT rThumb1
              {
                OFFSET -1.2192 -0.487915 3.41376
                CHANNELS 3 Zrotation Xrotation Yrotation
                JOINT rThumb2
                {
                  OFFSET -3.37035 -0.52449 3.41376
                  CHANNELS 3 Zrotation Xrotation Yrotation
                  End Site
                  {
                    OFFSET -1.78271 -1.18214 1.43049
                  }
                }
              }
              JOINT rIndex1
              {
                OFFSET -7.75947 0.938293 5.60832
                CHANNELS 3 Zrotation Xrotation Yrotation
                JOINT rIndex2
                {
                  OFFSET -2.54057 -0.884171 1.56538
                  CHANNELS 3 Zrotation Xrotation Yrotation
                  End Site
                  {
                    OFFSET -1.62519 -0.234802 1.16502
                  }
                }
              }
              JOINT rMid1
              {
                OFFSET -8.24714 1.18213 3.41376
                CHANNELS 3 Zrotation Xrotation Yrotation
                JOINT rMid2
                {
                  OFFSET -3.10165 -0.590103 1.0647
                  CHANNELS 3 Zrotation Xrotation Yrotation
                  End Site
                  {
                    OFFSET -2.48547 -0.328903 0.83742
                  }
                }
              }
              JOINT rRing1
              {
                OFFSET -8.82822 0.546677 1.51678
                CHANNELS 3 Zrotation Xrotation Yrotation
                JOINT rRing2
                {
                  OFFSET -2.60934 -0.819778 -0.0198488
                  CHANNELS 3 Zrotation Xrotation Yrotation
                  End Site
                  {
                    OFFSET -2.33842 -0.294052 0.168128
                  }
                }
              }
              JOINT rPinky1
              {
                OFFSET -8.27202 -0.0477905 -0.4584
                CHANNELS 3 Zrotation Xrotation Yrotation
                JOINT rPinky2
                {
                  OFFSET -1.82734 -0.647385 -0.700984
                  CHANNELS 3 Zrotation Xrotation Yrotation
                  End Site
                  {
                    OFFSET -1.69225 -0.51767 -0.607171
                  }
                }
              }
            }
          }
        }
      }
      JOINT lCollar
      {
        OFFSET 2.68224 19.2634 -4.8768
        CHANNELS 3 Zrotation Xrotation Yrotation
        JOINT lShldr
        {
          OFFSET 8.77824 -1.95073 1.46304
          CHANNELS 3 Zrotation Xrotation Yrotation
          JOINT lForeArm
          {
            OFFSET 28.1742 -1.7115 0.48768
            CHANNELS 3 Zrotation Xrotation Yrotation
            JOINT lHand
            {
              OFFSET 22.5879 0.773209 7.07136
              CHANNELS 3 Zrotation Xrotation Yrotation
              JOINT lThumb1
              {
                OFFSET 1.2192 -0.487915 3.41376
                CHANNELS 3 Zrotation Xrotation Yrotation
                JOINT lThumb2
                {
                  OFFSET 3.37035 -0.52449 3.41376
                  CHANNELS 3 Zrotation Xrotation Yrotation
                  End Site
                  {
                    OFFSET 1.78271 -1.18214 1.43049
                  }
                }
              }
              JOINT lIndex1
              {
                OFFSET 7.75947 0.938293 5.60832
                CHANNELS 3 Zrotation Xrotation Yrotation
                JOINT lIndex2
                {
                  OFFSET 2.54057 -0.884171 1.56538
                  CHANNELS 3 Zrotation Xrotation Yrotation
                  End Site
                  {
                    OFFSET 1.62519 -0.234802 1.16502
                  }
                }
              }
              JOINT lMid1
              {
                OFFSET 8.24714 1.18213 3.41376
                CHANNELS 3 Zrotation Xrotation Yrotation
                JOINT lMid2
                {
                  OFFSET 3.10165 -0.590103 1.0647
                  CHANNELS 3 Zrotation Xrotation Yrotation
                  End Site
                  {
                    OFFSET 2.48547 -0.328903 0.83742
                  }
                }
              }
              JOINT lRing1
              {
                OFFSET 8.82822 0.546677 1.51678
                CHANNELS 3 Zrotation Xrotation Yrotation
                JOINT lRing2
                {
                  OFFSET 2.60934 -0.819778 -0.0198488
                  CHANNELS 3 Zrotation Xrotation Yrotation
                  End Site
                  {
                    OFFSET 2.33842 -0.294052 0.168128
                  }
                }
              }
              JOINT lPinky1
              {
                OFFSET 8.27202 -0.0477905 -0.4584
                CHANNELS 3 Zrotation Xrotation Yrotation
                JOINT lPinky2
                {
                  OFFSET 1.82734 -0.647385 -0.700984
                  CHANNELS 3 Zrotation Xrotation Yrotation
                  End Site
                  {
                    OFFSET 1.69225 -0.51767 -0.607171
                  }
                }
              }
            }
          }
        }
      }
    }
  }
  JOINT rButtock
  {
    OFFSET -8.77824 4.35084 1.2192
    CHANNELS 3 Zrotation Xrotation Yrotation
    JOINT rThigh
    {
      OFFSET 0 -1.70687 -2.19456
      CHANNELS 3 Zrotation Xrotation Yrotation
      JOINT rShin
      {
        OFFSET 0 -36.8199 0.73152
        CHANNELS 3 Zrotation Xrotation Yrotation
        JOINT rFoot
        {
          OFFSET 0.73152 -45.1104 -5.12064
          CHANNELS 3 Zrotation Xrotation Yrotation
          End Site
          {
            OFFSET -1.1221 -3.69964 12.103
          }
        }
      }
    }
  }
  JOINT lButtock
  {
    OFFSET 8.77824 4.35084 1.2192
    CHANNELS 3 Zrotation Xrotation Yrotation
    JOINT lThigh
    {
      OFFSET 0 -1.70687 -2.19456
      CHANNELS 3 Zrotation Xrotation Yrotation
      JOINT lShin
      {
        OFFSET 0 -36.8199 0.73152
        CHANNELS 3 Zrotation Xrotation Yrotation
        JOINT lFoot
        {
          OFFSET -0.73152 -45.1104 -5.12064
          CHANNELS 3 Zrotation Xrotation Yrotation
          End Site
          {
            OFFSET 1.1221 -3.69964 12.103
          }
        }
      }
    }
  }
}
MOTION
Frames:	9
Frame Time:	0.00833333
-44.2629 60.6621 252.953 0.0 0.0 0.0 1.57501 -0.00270822 0.0428954 0.434158 0.00151543 0.0751859 5.14622e-14 7.95139e-16 2.48481e-16 1.54718e-13 1.59028e-14 7.9048e-16 -0.0 0.0 0.0 -0.0 0.0 0.0 2.57418e-14 -6.42556e-17 1.98785e-16 5.4363e-13 -1.1368e-15 5.36719e-15 9.34288e-12 -2.83467e-12 -5.40694e-14 1.06799e-10 2.55714e-12 6.93361e-13 2.51942e-10 -6.07672e-13 1.36446e-12 4.35085e-10 -1.05594e-12 2.32976e-12 2.51948e-10 -6.06691e-13 1.35174e-12 7.73091 5.47488 0.417314 2.51943e-10 -6.07685e-13 1.36764e-12 2.90554 0.965183 0.102902 2.5195e-10 -6.07685e-13 1.35651e-12 10.2786 0.731801 0.0259123 2.51932e-10 -6.05498e-13 1.36128e-12 2.22167 -0.733487 -0.20892 2.57452e-14 -6.42556e-17 9.93923e-17 5.40063e-13 -1.52195e-15 3.37934e-15 9.32385e-12 2.74919e-12 -2.22639e-14 1.06824e-10 -3.05343e-12 6.64736e-13 2.51958e-10 -6.60424e-13 1.34219e-12 4.35133e-10 -1.14182e-12 2.33135e-12 2.51952e-10 -6.6076e-13 1.34856e-12 -7.73091 5.47488 -0.417314 2.51957e-10 -6.60363e-13 1.34219e-12 -2.90554 0.965183 -0.102902 2.51948e-10 -6.60363e-13 1.35253e-12 -10.2786 0.731801 -0.0259123 2.51961e-10 -6.58772e-13 1.35174e-12 -2.22167 -0.733487 0.20892 -2.03217e-16 0.0 -3.88251e-19 1.70487 -6.60399 -0.159336 0.00258674 6.39962 0.0733607 -0.528048 0.199765 0.0640931 2.03217e-16 0.0 3.88251e-19 0.692264 -1.9236 0.0055776 0.0091757 -2.07857 0.0757298 0.502706 3.99746 -0.138918
-46.0111 58.9881 253.674 -179.555 16.4008 -153.774 2.19069 3.33482 0.400527 0.94143 -2.89791 0.270471 0.638639 0.0741838 0.856758 -2.24828 -6.87312 1.15567 -0.0 0.0 0.0 -0.0 0.0 0.0 -6.14623e-15 6.63706e-14 -3.49116e-15 18.6695 4.14788 -3.79558 -11.213 -8.10935 13.0323 0.00143445 -0.845646 -0.118802 -1.51716e-10 5.62576e-10 5.64459e-10 -2.64075e-10 9.7206e-10 9.73336e-10 -1.5171e-10 5.62576e-10 5.64448e-10 7.73091 5.47488 0.417314 -1.51715e-10 5.62576e-10 5.64462e-10 2.90554 0.965183 0.102902 -1.5171e-10 5.62576e-10 5.64454e-10 10.2786 0.731801 0.0259123 -1.51725e-10 5.62578e-10 5.6446e-10 2.22167 -0.733487 -0.20892 -6.19282e-15 6.63734e-14 -3.6484e-15 -21.2031 9.96737 -1.8913 12.8762 -9.88817 -13.8625 2.30453e-05 -0.0475654 0.00668477 8.40235e-10 -4.54796e-10 -6.24736e-10 1.45183e-09 -7.82968e-10 -1.07833e-09 8.4023e-10 -4.54796e-10 -6.24729e-10 -7.73091 5.47488 -0.417314 8.40234e-10 -4.54789e-10 -6.24735e-10 -2.90554 0.965183 -0.102902 8.40226e-10 -4.54796e-10 -6.24729e-10 -10.2786 0.731801 -0.0259123 8.40238e-10 -4.54796e-10 -6.24732e-10 -2.22167 -0.733487 0.20892 -2.03217e-16 0.0 -3.88251e-19 -0.319997 -15.7537 -3.88867 0.144044 27.9414 0.36467 -0.892831 -2.37021 -4.12499 2.03217e-16 0.0 3.88251e-19 0.761176 -12.5659 -0.286263 0.159144 17.5984 -0.137469 -0.358357 -2.84681 -5.81374
-45.9951 58.8058 252.502 -180.264 16.0227 -154.085 2.76775 6.84854 0.840881 1.48734 -5.95716 0.492791 1.31015 0.140696 1.75427 -4.31288 -14.1149 2.41895 -0.0 0.0 0.0 -0.0 0.0 0.0 -4.37519e-14 1.34148e-13 -4.59689e-15 39.0589 8.43327 -7.81806 -19.0575 -15.2368 27.5676 -0.000887216 -1.75072 -0.246042 -5.65582e-10 1.17217e-09 1.17135e-09 -9.81046e-10 2.02538e-09 2.01998e-09 -5.65577e-10 1.17217e-09 1.17134e-09 7.73091 5.47488 0.417314 -5.65583e-10 1.17217e-09 1.17135e-09 2.90554 0.965183 0.102902 -5.65579e-10 1.17217e-09 1.17134e-09 10.2786 0.731801 0.0259123 -5.6559e-10 1.17217e-09 1.17135e-09 2.22167 -0.733487 -0.20892 -4.3853e-14 1.34154e-13 -4.81742e-15 -42.8895 20.4609 -4.01206 21.1516 -18.2096 -29.6698 7.88157e-05 -0.111294 0.0156411 1.47391e-09 -8.98249e-10 -1.29687e-09 2.54705e-09 -1.54627e-09 -2.23853e-09 1.47391e-09 -8.98251e-10 -1.29687e-09 -7.73091 5.47488 -0.417314 1.47391e-09 -8.98234e-10 -1.29687e-09 -2.90554 0.965183 -0.102902 1.4739e-09 -8.98251e-10 -1.29687e-09 -10.2786 0.731801 -0.0259123 1.47391e-09 -8.98251e-10 -1.29688e-09 -2.22167 -0.733487 0.20892 -2.03217e-16 0.0 -3.88251e-19 -3.86464 -25.024 -8.24602 -0.0721226 50.5646 0.920944 -1.67464 -5.03211 -8.57699 2.03217e-16 0.0 3.88251e-19 0.743681 -23.9103 -0.589112 0.515424 38.4986 -0.448905 -2.75979 -9.85855 -12.0228
-45.9418 58.5569 251.376 -180.756 15.4565 -154.181 3.29538 10.0082 1.13097 2.0159 -8.69628 0.667681 1.90926 0.222352 2.57029 -5.86538 -20.5846 3.67715 -0.0 0.0 0.0 -0.0 0.0 0.0 -6.99222e-14 1.9924e-13 -1.0871e-14 57.6774 12.2229 -11.6239 -23.0215 -19.2301 41.4663 -0.00622598 -2.53689 -0.356717 -9.59031e-10 1.68894e-09 1.69065e-09 -1.6624e-09 2.91829e-09 2.91535e-09 -9.59026e-10 1.68894e-09 1.69064e-09 7.73091 5.47488 0.417314 -9.59032e-10 1.68894e-09 1.69065e-09 2.90554 0.965183 0.102902 -9.5903e-10 1.68894e-09 1.69065e-09 10.2786 0.731801 0.0259123 -9.59037e-10 1.68895e-09 1.69066e-09 2.22167 -0.733487 -0.20892 -7.00688e-14 1.99249e-13 -1.1144e-14 -61.3845 29.7615 -6.44069 24.7683 -22.563 -45.2215 0.000102433 -0.142696 0.0200544 2.01679e-09 -1.36307e-09 -1.87689e-09 3.48523e-09 -2.34662e-09 -3.23965e-09 2.01679e-09 -1.36307e-09 -1.87688e-09 -7.73091 5.47488 -0.417314 2.01679e-09 -1.36305e-09 -1.87689e-09 -2.90554 0.965183 -0.102902 2.01678e-09 -1.36307e-09 -1.87689e-09 -10.2786 0.731801 -0.0259123 2.01679e-09 -1.36307e-09 -1.8769e-09 -2.22167 -0.733487 0.20892 -2.03217e-16 0.0 -3.88251e-19 -8.55259 -33.4568 -13.1128 -1.46228 71.0093 2.52265 -2.7477 -7.34936 -12.5977 2.03217e-16 0.0 3.88251e-19 0.51656 -33.8466 -1.02269 1.17669 56.9484 -0.998332 -6.20696 -15.8231 -17.8398
-45.8495 58.4046 250.13 -180.999 14.7154 -154.189 3.82231 12.2853 1.02572 2.45183 -10.6357 0.716871 2.33019 0.341972 3.18256 -6.7516 -25.1548 4.73218 -0.0 0.0 0.0 -0.0 0.0 0.0 -6.75044e-14 2.5762e-13 -3.00662e-14 70.7506 14.9628 -14.6803 -24.5875 -20.2375 51.5252 -0.0112422 -3.02584 -0.425653 -1.30143e-09 1.97367e-09 1.991e-09 -2.25469e-09 3.41017e-09 3.43253e-09 -1.30143e-09 1.97367e-09 1.99099e-09 7.73091 5.47488 0.417314 -1.30143e-09 1.97367e-09 1.991e-09 2.90554 0.965183 0.102902 -1.30143e-09 1.97367e-09 1.991e-09 10.2786 0.731801 0.0259123 -1.30144e-09 1.97367e-09 1.99101e-09 2.22167 -0.733487 -0.20892 -6.76737e-14 2.57629e-13 -3.03644e-14 -73.3843 36.1826 -8.99847 26.0148 -23.473 -56.8277 1.06736e-05 -0.0932833 0.0131101 2.33267e-09 -1.88129e-09 -2.22661e-09 4.0308e-09 -3.23957e-09 -3.84308e-09 2.33267e-09 -1.88129e-09 -2.2266e-09 -7.73091 5.47488 -0.417314 2.33267e-09 -1.88127e-09 -2.22661e-09 -2.90554 0.965183 -0.102902 2.33266e-09 -1.88129e-09 -2.22661e-09 -10.2786 0.731801 -0.0259123 2.33267e-09 -1.88129e-09 -2.22662e-09 -2.22167 -0.733487 0.20892 -2.03217e-16 0.0 -3.88251e-19 -13.4286 -40.2334 -18.0061 -12.9698 85.9419 14.1105 -3.76472 -8.95716 -15.451 2.03217e-16 0.0 3.88251e-19 -0.0404114 -40.2632 -1.68974 2.17798 69.2744 -1.89282 -9.32187 -19.8877 -21.9736
-45.7898 58.4133 248.728 -181.165 13.9852 -153.768 4.43477 13.3253 0.298679 2.75083 -11.4821 0.57267 2.50768 0.509764 3.49895 -6.99747 -27.0549 5.33473 -0.0 0.0 0.0 -0.0 0.0 0.0 -6.74424e-15 3.28144e-13 -8.07326e-14 75.5774 16.2855 -16.5878 -25.0916 -20.2674 55.6713 -0.0128563 -3.12661 -0.439887 -1.70518e-09 1.96132e-09 2.05939e-09 -2.95178e-09 3.38861e-09 3.54866e-09 -1.70518e-09 1.96132e-09 2.05938e-09 7.73091 5.47488 0.417314 -1.70518e-09 1.96132e-09 2.05939e-09 2.90554 0.965183 0.102902 -1.70518e-09 1.96132e-09 2.05939e-09 10.2786 0.731801 0.0259123 -1.70519e-09 1.96132e-09 2.05941e-09 2.22167 -0.733487 -0.20892 -6.9025e-15 3.28151e-13 -8.10121e-14 -77.1603 38.6943 -11.2609 26.5687 -23.7688 -62.4333 -0.000177373 0.113188 -0.0159065 2.40458e-09 -2.93313e-09 -2.34779e-09 4.15409e-09 -5.05447e-09 -4.05185e-09 2.40457e-09 -2.93313e-09 -2.34778e-09 -7.73091 5.47488 -0.417314 2.40457e-09 -2.93311e-09 -2.34779e-09 -2.90554 0.965183 -0.102902 2.40457e-09 -2.93313e-09 -2.34779e-09 -10.2786 0.731801 -0.0259123 2.40458e-09 -2.93313e-09 -2.3478e-09 -2.22167 -0.733487 0.20892 -2.03217e-16 0.0 -3.88251e-19 -17.2627 -44.9785 -22.2324 -162.97 86.1331 164.094 -4.37068 -9.70753 -16.6445 2.03217e-16 0.0 3.88251e-19 -0.86417 -41.7775 -2.60921 2.72467 73.0757 -2.40182 -10.6441 -21.9299 -23.2371
-45.7372 58.3019 247.397 -181.441 13.48 -153.521 5.10757 13.4774 -0.871018 2.94908 -11.5464 0.290115 2.51176 0.712257 3.60453 -6.88336 -27.0583 5.56085 -0.0 0.0 0.0 -0.0 0.0 0.0 9.48166e-14 4.06317e-13 -1.53241e-13 74.3676 16.6486 -17.622 -25.1507 -20.5094 55.6728 -0.0115474 -2.9488 -0.414824 -2.14643e-09 1.73545e-09 1.95855e-09 -3.71279e-09 2.998e-09 3.37222e-09 -2.14642e-09 1.73545e-09 1.95855e-09 7.73091 5.47488 0.417314 -2.14643e-09 1.73545e-09 1.95856e-09 2.90554 0.965183 0.102902 -2.14643e-09 1.73545e-09 1.95856e-09 10.2786 0.731801 0.0259123 -2.14643e-09 1.73546e-09 1.95857e-09 2.22167 -0.733487 -0.20892 9.46935e-14 4.06321e-13 -1.53471e-13 -75.4518 38.4489 -13.0296 26.9053 -24.9452 -64.06 -4.83719e-05 0.429752 -0.0603969 2.2987e-09 -4.34427e-09 -2.30125e-09 3.9697e-09 -7.49016e-09 -3.97098e-09 2.29869e-09 -4.34427e-09 -2.30124e-09 -7.73091 5.47488 -0.417314 2.2987e-09 -4.34426e-09 -2.30125e-09 -2.90554 0.965183 -0.102902 2.29869e-09 -4.34427e-09 -2.30125e-09 -10.2786 0.731801 -0.0259123 2.2987e-09 -4.34427e-09 -2.30125e-09 -2.22167 -0.733487 0.20892 -2.03217e-16 0.0 -3.88251e-19 -20.0006 -48.364 -25.7471 -169.05 83.8171 170.109 -4.59838 -9.87698 -16.6329 2.03217e-16 0.0 3.88251e-19 -1.70261 -39.787 -3.58536 2.30507 70.7908 -2.00546 -10.3377 -22.6792 -22.2898
-45.6937 58.2216 246.005 -181.681 13.1215 -153.171 5.73732 13.2721 -2.12632 3.08816 -11.2554 -0.0267772 2.43892 0.936716 3.64285 -6.67622 -26.3597 5.65984 -0.0 0.0 0.0 -0.0 0.0 0.0 1.83388e-13 4.53081e-13 -2.13076e-13 70.6788 16.7703 -18.2282 -25.0733 -20.9264 54.0586 -0.00887084 -2.61487 -0.367767 -2.39017e-09 1.37971e-09 1.67068e-09 -4.13223e-09 2.383e-09 2.87328e-09 -2.39017e-09 1.37971e-09 1.67068e-09 7.73091 5.47488 0.417314 -2.39017e-09 1.37971e-09 1.67069e-09 2.90554 0.965183 0.102902 -2.39017e-09 1.37971e-09 1.67069e-09 10.2786 0.731801 0.0259123 -2.39018e-09 1.37971e-09 1.6707e-09 2.22167 -0.733487 -0.20892 1.83306e-13 4.53081e-13 -2.13253e-13 -71.7655 37.0594 -14.3385 27.2386 -26.849 -64.2004 0.000505553 0.720086 -0.101206 2.00359e-09 -5.16499e-09 -2.03743e-09 3.45841e-09 -8.90651e-09 -3.51491e-09 2.00359e-09 -5.16499e-09 -2.03742e-09 -7.73091 5.47488 -0.417314 2.00359e-09 -5.16499e-09 -2.03742e-09 -2.90554 0.965183 -0.102902 2.00359e-09 -5.16499e-09 -2.03742e-09 -10.2786 0.731801 -0.0259123 2.00359e-09 -5.16498e-09 -2.03742e-09 -2.22167 -0.733487 0.20892 -2.03217e-16 0.0 -3.88251e-19 -22.2506 -51.242 -28.8517 -169.24 83.8912 170.205 -4.64691 -9.77113 -16.0816 2.03217e-16 0.0 3.88251e-19 -2.44077 -36.3526 -4.43144 1.71417 66.0036 -1.46232 -9.29275 -22.7463 -20.4363
-45.6686 58.1714 244.549 -181.908 12.9809 -152.745 6.25761 13.2456 -3.11855 3.20256 -11.0363 -0.275323 2.38375 1.17028 3.75748 -6.61259 -26.1498 5.89645 -0.0 0.0 0.0 -0.0 0.0 0.0 2.05179e-13 4.29375e-13 -2.2572e-13 68.1435 17.3383 -18.8789 -25.1122 -21.3389 53.3495 -0.00619804 -2.2473 -0.316001 -2.20142e-09 9.77742e-10 1.17798e-09 -3.80455e-09 1.68825e-09 2.02193e-09 -2.20142e-09 9.7774e-10 1.17798e-09 7.73091 5.47488 0.417314 -2.20143e-09 9.7774e-10 1.17799e-09 2.90554 0.965183 0.102902 -2.20142e-09 9.77742e-10 1.17799e-09 10.2786 0.731801 0.0259123 -2.20143e-09 9.77745e-10 1.178e-09 2.22167 -0.733487 -0.20892 2.05126e-13 4.29375e-13 -2.25869e-13 -69.3309 36.0995 -15.3977 27.6271 -28.7218 -65.2125 0.000881754 0.847867 -0.119169 1.50781e-09 -4.44555e-09 -1.50676e-09 2.60102e-09 -7.66337e-09 -2.59805e-09 1.5078e-09 -4.44555e-09 -1.50675e-09 -7.73091 5.47488 -0.417314 1.50781e-09 -4.44556e-09 -1.50676e-09 -2.90554 0.965183 -0.102902 1.5078e-09 -4.44555e-09 -1.50676e-09 -10.2786 0.731801 -0.0259123 1.50781e-09 -4.44555e-09 -1.50675e-09 -2.22167 -0.733487 0.20892 -2.03217e-16 0.0 -3.88251e-19 -25.1013 -54.3415 -32.2604 -169.846 83.5717 170.704 -4.73425 -9.68873 -15.6609 2.03217e-16 0.0 3.88251e-19 -3.17083 -33.5338 -5.08565 1.38623 62.3009 -1.17588 -8.46577 -22.7471 -19.0304
